<svg width="15" height="15" viewBox="0 0 15 15" fill="none" xmlns="http://www.w3.org/2000/svg">
<g id="exit-to-app">
<path id="Vector" d="M11.875 1.875H3.125C2.43125 1.875 1.875 2.43125 1.875 3.125V5.625H3.125V3.125H11.875V11.875H3.125V9.375H1.875V11.875C1.875 12.2065 2.0067 12.5245 2.24112 12.7589C2.47554 12.9933 2.79348 13.125 3.125 13.125H11.875C12.2065 13.125 12.5245 12.9933 12.7589 12.7589C12.9933 12.5245 13.125 12.2065 13.125 11.875V3.125C13.125 2.43125 12.5625 1.875 11.875 1.875ZM6.3 9.7375L7.1875 10.625L10.3125 7.5L7.1875 4.375L6.3 5.25625L7.91875 6.875H1.875V8.125H7.91875L6.3 9.7375Z" fill="white"/>
</g>
</svg>
