<svg width="42" height="51" viewBox="0 0 42 51" fill="none" xmlns="http://www.w3.org/2000/svg">
<path d="M11.875 19.875H3.125C2.43125 19.875 1.875 20.4312 1.875 21.125V23.625H3.125V21.125H11.875V29.875H3.125V27.375H1.875V29.875C1.875 30.2065 2.0067 30.5245 2.24112 30.7589C2.47554 30.9933 2.79348 31.125 3.125 31.125H11.875C12.2065 31.125 12.5245 30.9933 12.7589 30.7589C12.9933 30.5245 13.125 30.2065 13.125 29.875V21.125C13.125 20.4312 12.5625 19.875 11.875 19.875ZM6.3 27.7375L7.1875 28.625L10.3125 25.5L7.1875 22.375L6.3 23.2562L7.91875 24.875H1.875V26.125H7.91875L6.3 27.7375Z" fill="white"/>
<path d="M25.8379 27.8027C25.8379 27.627 25.8105 27.4707 25.7559 27.334C25.7051 27.1973 25.6133 27.0723 25.4805 26.959C25.3477 26.8457 25.1602 26.7363 24.918 26.6309C24.6797 26.5215 24.375 26.4102 24.0039 26.2969C23.5977 26.1719 23.2227 26.0332 22.8789 25.8809C22.5391 25.7246 22.2422 25.5449 21.9883 25.3418C21.7344 25.1348 21.5371 24.8984 21.3965 24.6328C21.2559 24.3633 21.1855 24.0527 21.1855 23.7012C21.1855 23.3535 21.2578 23.0371 21.4023 22.752C21.5508 22.4668 21.7598 22.2207 22.0293 22.0137C22.3027 21.8027 22.625 21.6406 22.9961 21.5273C23.3672 21.4102 23.7773 21.3516 24.2266 21.3516C24.8594 21.3516 25.4043 21.4688 25.8613 21.7031C26.3223 21.9375 26.6758 22.252 26.9219 22.6465C27.1719 23.041 27.2969 23.4766 27.2969 23.9531H25.8379C25.8379 23.6719 25.7773 23.4238 25.6562 23.209C25.5391 22.9902 25.3594 22.8184 25.1172 22.6934C24.8789 22.5684 24.5762 22.5059 24.209 22.5059C23.8613 22.5059 23.5723 22.5586 23.3418 22.6641C23.1113 22.7695 22.9395 22.9121 22.8262 23.0918C22.7129 23.2715 22.6562 23.4746 22.6562 23.7012C22.6562 23.8613 22.6934 24.0078 22.7676 24.1406C22.8418 24.2695 22.9551 24.3906 23.1074 24.5039C23.2598 24.6133 23.4512 24.7168 23.6816 24.8145C23.9121 24.9121 24.1836 25.0059 24.4961 25.0957C24.9688 25.2363 25.3809 25.3926 25.7324 25.5645C26.084 25.7324 26.377 25.9238 26.6113 26.1387C26.8457 26.3535 27.0215 26.5977 27.1387 26.8711C27.2559 27.1406 27.3145 27.4473 27.3145 27.791C27.3145 28.1504 27.2422 28.4746 27.0977 28.7637C26.9531 29.0488 26.7461 29.293 26.4766 29.4961C26.2109 29.6953 25.8906 29.8496 25.5156 29.959C25.1445 30.0645 24.7305 30.1172 24.2734 30.1172C23.8633 30.1172 23.459 30.0625 23.0605 29.9531C22.666 29.8438 22.3066 29.6777 21.9824 29.4551C21.6582 29.2285 21.4004 28.9473 21.209 28.6113C21.0176 28.2715 20.9219 27.875 20.9219 27.4219H22.3926C22.3926 27.6992 22.4395 27.9355 22.5332 28.1309C22.6309 28.3262 22.7656 28.4863 22.9375 28.6113C23.1094 28.7324 23.3086 28.8223 23.5352 28.8809C23.7656 28.9395 24.0117 28.9688 24.2734 28.9688C24.6172 28.9688 24.9043 28.9199 25.1348 28.8223C25.3691 28.7246 25.5449 28.5879 25.6621 28.4121C25.7793 28.2363 25.8379 28.0332 25.8379 27.8027ZM32.0488 28.7285V25.7051C32.0488 25.4785 32.0078 25.2832 31.9258 25.1191C31.8438 24.9551 31.7188 24.8281 31.5508 24.7383C31.3867 24.6484 31.1797 24.6035 30.9297 24.6035C30.6992 24.6035 30.5 24.6426 30.332 24.7207C30.1641 24.7988 30.0332 24.9043 29.9395 25.0371C29.8457 25.1699 29.7988 25.3203 29.7988 25.4883H28.3926C28.3926 25.2383 28.4531 24.9961 28.5742 24.7617C28.6953 24.5273 28.8711 24.3184 29.1016 24.1348C29.332 23.9512 29.6074 23.8066 29.9277 23.7012C30.248 23.5957 30.6074 23.543 31.0059 23.543C31.4824 23.543 31.9043 23.623 32.2715 23.7832C32.6426 23.9434 32.9336 24.1855 33.1445 24.5098C33.3594 24.8301 33.4668 25.2324 33.4668 25.7168V28.5352C33.4668 28.8242 33.4863 29.084 33.5254 29.3145C33.5684 29.541 33.6289 29.7383 33.707 29.9062V30H32.2598C32.1934 29.8477 32.1406 29.6543 32.1016 29.4199C32.0664 29.1816 32.0488 28.9512 32.0488 28.7285ZM32.2539 26.1445L32.2656 27.0176H31.252C30.9902 27.0176 30.7598 27.043 30.5605 27.0938C30.3613 27.1406 30.1953 27.2109 30.0625 27.3047C29.9297 27.3984 29.8301 27.5117 29.7637 27.6445C29.6973 27.7773 29.6641 27.9277 29.6641 28.0957C29.6641 28.2637 29.7031 28.418 29.7812 28.5586C29.8594 28.6953 29.9727 28.8027 30.1211 28.8809C30.2734 28.959 30.457 28.998 30.6719 28.998C30.9609 28.998 31.2129 28.9395 31.4277 28.8223C31.6465 28.7012 31.8184 28.5547 31.9434 28.3828C32.0684 28.207 32.1348 28.041 32.1426 27.8848L32.5996 28.5117C32.5527 28.6719 32.4727 28.8438 32.3594 29.0273C32.2461 29.2109 32.0977 29.3867 31.9141 29.5547C31.7344 29.7188 31.5176 29.8535 31.2637 29.959C31.0137 30.0645 30.7246 30.1172 30.3965 30.1172C29.9824 30.1172 29.6133 30.0352 29.2891 29.8711C28.9648 29.7031 28.7109 29.4785 28.5273 29.1973C28.3438 28.9121 28.252 28.5898 28.252 28.2305C28.252 27.8945 28.3145 27.5977 28.4395 27.3398C28.5684 27.0781 28.7559 26.8594 29.002 26.6836C29.252 26.5078 29.5566 26.375 29.916 26.2852C30.2754 26.1914 30.6855 26.1445 31.1465 26.1445H32.2539ZM36.4551 23.6602V30H35.0371V23.6602H36.4551ZM34.9434 21.9961C34.9434 21.7812 35.0137 21.6035 35.1543 21.4629C35.2988 21.3184 35.498 21.2461 35.752 21.2461C36.002 21.2461 36.1992 21.3184 36.3438 21.4629C36.4883 21.6035 36.5605 21.7812 36.5605 21.9961C36.5605 22.207 36.4883 22.3828 36.3438 22.5234C36.1992 22.6641 36.002 22.7344 35.752 22.7344C35.498 22.7344 35.2988 22.6641 35.1543 22.5234C35.0137 22.3828 34.9434 22.207 34.9434 21.9961ZM39.4199 24.8672V30H38.0078V23.6602H39.3555L39.4199 24.8672ZM41.3594 23.6191L41.3477 24.9316C41.2617 24.916 41.168 24.9043 41.0664 24.8965C40.9688 24.8887 40.8711 24.8848 40.7734 24.8848C40.5312 24.8848 40.3184 24.9199 40.1348 24.9902C39.9512 25.0566 39.7969 25.1543 39.6719 25.2832C39.5508 25.4082 39.457 25.5605 39.3906 25.7402C39.3242 25.9199 39.2852 26.1211 39.2734 26.3438L38.9512 26.3672C38.9512 25.9688 38.9902 25.5996 39.0684 25.2598C39.1465 24.9199 39.2637 24.6211 39.4199 24.3633C39.5801 24.1055 39.7793 23.9043 40.0176 23.7598C40.2598 23.6152 40.5391 23.543 40.8555 23.543C40.9414 23.543 41.0332 23.5508 41.1309 23.5664C41.2324 23.582 41.3086 23.5996 41.3594 23.6191Z" fill="white"/>
</svg>
