<svg viewBox="0 0 300 300" xmlns="http://www.w3.org/2000/svg">
  <circle cx="75.5" cy="40.5" r="34.5" fill="#BF1E2D" />
  <path
    fill-rule="evenodd"
    clip-rule="evenodd"
    d="M189 23C189 16.3726 194.373 11 201 11H243.811C250.438 11 255.811 16.3726 255.811 23V65.8105C255.811 72.4379 250.438 77.8105 243.811 77.8105H201C194.373 77.8105 189 72.4379 189 65.8105V23ZM117 96C117 89.3726 122.373 84 129 84H171.811C178.438 84 183.811 89.3726 183.811 96V138.811C183.811 145.438 178.438 150.811 171.811 150.811H129C122.373 150.811 117 145.438 117 138.811V96ZM117 169C117 162.373 122.373 157 129 157H171.811C178.438 157 183.811 162.373 183.811 169V211.811C183.811 218.438 178.438 223.811 171.811 223.811H129C122.373 223.811 117 218.438 117 211.811V169ZM202 158C195.373 158 190 163.373 190 170V212.811C190 219.438 195.373 224.811 202 224.811H244.811C251.438 224.811 256.811 219.438 256.811 212.811V170C256.811 163.373 251.438 158 244.811 158H202ZM43 242C43 235.373 48.3726 230 55 230H97.8105C104.438 230 109.811 235.373 109.811 242V284.811C109.811 291.438 104.438 296.811 97.8105 296.811H55C48.3726 296.811 43 291.438 43 284.811V242ZM117 242C117 235.373 122.373 230 129 230H171.811C178.438 230 183.811 235.373 183.811 242V284.811C183.811 291.438 178.438 296.811 171.811 296.811H129C122.373 296.811 117 291.438 117 284.811V242ZM56 157C49.3726 157 44 162.373 44 169V211.811C44 218.438 49.3726 223.811 56 223.811H98.8105C105.438 223.811 110.811 218.438 110.811 211.811V169C110.811 162.373 105.438 157 98.8105 157H56ZM55 84C48.3726 84 43 89.3726 43 96V138.811C43 145.438 48.3726 150.811 55 150.811H97.8105C104.438 150.811 109.811 145.438 109.811 138.811V96C109.811 89.3726 104.438 84 97.8105 84H55ZM128 11C121.373 11 116 16.3726 116 23V65.8105C116 72.4379 121.373 77.8105 128 77.8105H170.811C177.438 77.8105 182.811 72.4379 182.811 65.8105V23C182.811 16.3726 177.438 11 170.811 11H128Z"
    fill="#056839"
  />
</svg>
